<?xml version="1.0" encoding="UTF-8" standalone="no"?>
<!-- Created with Inkscape (http://www.inkscape.org/) -->

<svg
   xmlns:dc="http://purl.org/dc/elements/1.1/"
   xmlns:cc="http://creativecommons.org/ns#"
   xmlns:rdf="http://www.w3.org/1999/02/22-rdf-syntax-ns#"
   xmlns:svg="http://www.w3.org/2000/svg"
   xmlns="http://www.w3.org/2000/svg"
   xmlns:sodipodi="http://sodipodi.sourceforge.net/DTD/sodipodi-0.dtd"
   xmlns:inkscape="http://www.inkscape.org/namespaces/inkscape"
   width="421.64526"
   height="115.64361"
   id="svg4754"
   version="1.1"
   inkscape:version="0.48.0 r9654"
   sodipodi:docname="carte symbole.svg">
  <defs
     id="defs4756" />
  <sodipodi:namedview
     id="base"
     pagecolor="#ffffff"
     bordercolor="#666666"
     borderopacity="1.0"
     inkscape:pageopacity="0.0"
     inkscape:pageshadow="2"
     inkscape:zoom="0.74375"
     inkscape:cx="123.33419"
     inkscape:cy="79.606011"
     inkscape:document-units="px"
     inkscape:current-layer="layer1"
     showgrid="false"
     showguides="true"
     inkscape:guide-bbox="true"
     inkscape:window-width="1298"
     inkscape:window-height="742"
     inkscape:window-x="102"
     inkscape:window-y="125"
     inkscape:window-maximized="0"
     fit-margin-top="0"
     fit-margin-left="0"
     fit-margin-right="0"
     fit-margin-bottom="0">
    <inkscape:grid
       type="xygrid"
       id="grid4791"
       empspacing="5"
       visible="true"
       enabled="true"
       snapvisiblegridlinesonly="true" />
  </sodipodi:namedview>
  <metadata
     id="metadata4759">
    <rdf:RDF>
      <cc:Work
         rdf:about="">
        <dc:format>image/svg+xml</dc:format>
        <dc:type
           rdf:resource="http://purl.org/dc/dcmitype/StillImage" />
        <dc:title></dc:title>
      </cc:Work>
    </rdf:RDF>
  </metadata>
  <g
     inkscape:label="Calque 1"
     inkscape:groupmode="layer"
     id="layer1"
     transform="translate(-87.019292,-496.32459)">
    <g
       id="g4785"
       transform="matrix(1.0979729,0,0,1.0979729,-23.13545,-61.140413)">
      <path
         inkscape:connector-curvature="0"
         style="fill:#cccccc;fill-opacity:1;stroke:#cccccc;stroke-width:2;stroke-linecap:round;stroke-linejoin:round;stroke-miterlimit:4;stroke-opacity:1;stroke-dasharray:none;stroke-dashoffset:0"
         d="m 273.39305,513.98474 c -14.03276,1.07478 -17.14189,8.0066 -21.56606,12.52325 -3.87802,-4.91758 -8.37872,-12.89118 -18.92201,-12.8907 -19.94735,7.1e-4 -27.46724,14.22621 -27.92446,29.29504 0.0979,25.79351 30.34101,51.49198 46.76232,61.65517 11.5511,-6.89863 46.30865,-34.97504 45.02121,-60.68673 0,-17.28005 -8.2345,-27.75604 -23.371,-29.89603 z"
         id="path4777"
         sodipodi:nodetypes="ccscccc"
         inkscape:export-filename="/Volumes/LOUIS/Arborescence /isotype/coeur.png"
         inkscape:export-xdpi="300"
         inkscape:export-ydpi="300" />
      <path
         inkscape:export-ydpi="300"
         inkscape:export-xdpi="300"
         inkscape:export-filename="/Volumes/LOUIS/Arborescence /isotype/coeur.png"
         sodipodi:nodetypes="ccscccc"
         id="path3365"
         d="m 266.73793,511.13254 c -14.03276,1.07478 -17.14189,8.0066 -21.56606,12.52325 -3.87802,-4.91758 -8.37872,-12.89118 -18.92201,-12.8907 -19.94735,7.1e-4 -27.46724,14.22621 -27.92446,29.29504 0.0979,25.79351 30.34101,51.49198 46.76232,61.65517 11.5511,-6.89863 46.30865,-34.97504 45.02121,-60.68673 0,-17.28005 -8.2345,-27.75604 -23.371,-29.89603 z"
         style="fill:#d92840;fill-opacity:1;stroke:#000000;stroke-width:2;stroke-linecap:round;stroke-linejoin:round;stroke-miterlimit:4;stroke-opacity:1;stroke-dasharray:none;stroke-dashoffset:0"
         inkscape:connector-curvature="0" />
    </g>
    <g
       id="g4793"
       transform="matrix(1.0797184,0,0,1.0797184,8.9740583,-42.132534)">
      <path
         style="fill:#cccccc;fill-opacity:1;stroke:#cccccc;stroke-width:2;stroke-linecap:round;stroke-linejoin:round;stroke-miterlimit:4;stroke-opacity:1;stroke-dasharray:none;stroke-dashoffset:0"
         d="m 115.4226,504.93046 c -15.30293,16.84661 -27.956848,33.69322 -37.385988,50.53983 l 39.797988,49.33649 c 19.71057,-23.79086 38.3155,-46.45916 39.798,-51.74315 -15.23198,-16.80489 -27.74599,-33.33348 -42.21,-48.13317 z"
         id="path4775"
         inkscape:connector-curvature="0"
         sodipodi:nodetypes="ccccc" />
      <path
         sodipodi:nodetypes="ccccc"
         inkscape:connector-curvature="0"
         id="path7822"
         d="m 110.66894,499.70144 c -15.302928,16.84661 -27.956848,33.69322 -37.385988,50.53983 l 39.797988,49.33649 c 19.71057,-23.79086 38.3155,-46.45916 39.798,-51.74315 -15.23198,-16.80489 -27.74599,-33.33348 -42.21,-48.13317 z"
         style="fill:#d92840;fill-opacity:1;stroke:#000000;stroke-width:2;stroke-linecap:round;stroke-linejoin:round;stroke-miterlimit:4;stroke-opacity:1;stroke-dasharray:none;stroke-dashoffset:0" />
    </g>
    <path
       sodipodi:nodetypes="cccccccccccccccccccccc"
       inkscape:connector-curvature="0"
       id="path4779"
       d="m 363.73403,500.6099 c -0.27249,-3e-4 -0.54726,0.008 -0.82036,0.0202 -8.77264,0.11268 -17.01045,6.08305 -20.16887,14.30554 -2.60658,6.36419 -2.05107,13.82266 1.16052,19.84186 -8.41557,0.50853 -16.18312,6.35719 -19.22848,14.28531 -3.48615,8.51175 -1.35609,18.99172 5.28232,25.3378 6.05898,6.10623 15.75809,8.07976 23.67042,4.7685 0.5486,-0.21554 1.09546,-0.44608 1.62072,-0.70718 l -5.77553,26.10557 28.81866,0 -6.03565,-28.46963 c 5.97084,4.09426 13.95675,5.09229 20.6691,2.28323 8.48045,-3.33223 14.29676,-12.25174 14.16624,-21.41789 l 0,-0.20205 c -0.0229,-3.32485 -0.74718,-6.62463 -2.14094,-9.63806 -3.58067,-8.01577 -12.09018,-13.52559 -20.82916,-13.17403 -0.22079,0.002 -0.44028,0.0303 -0.6603,0.0404 1.58591,-3.19848 2.4723,-6.76749 2.42107,-10.36545 l 0,-0.18187 c -0.0229,-3.32483 -0.7472,-6.64481 -2.14096,-9.65826 -3.46875,-7.76528 -11.5615,-13.16385 -20.0088,-13.17402 z"
       style="fill:#cccccc;fill-opacity:1;stroke:#cccccc;stroke-width:2.0429821;stroke-linecap:round;stroke-linejoin:round;stroke-miterlimit:4;stroke-opacity:1;stroke-dasharray:none;stroke-dashoffset:0" />
    <path
       style="fill:#000;fill-opacity:1;stroke:#000000;stroke-width:2.0429821;stroke-linecap:round;stroke-linejoin:round;stroke-miterlimit:4;stroke-opacity:1;stroke-dasharray:none;stroke-dashoffset:0"
       d="m 356.49388,500.12139 c -0.27249,-3e-4 -0.54726,0.008 -0.82036,0.0202 -8.77264,0.11267 -17.01046,6.08304 -20.16888,14.30553 -2.60658,6.36419 -2.05106,13.82266 1.16053,19.84186 -8.41557,0.50853 -16.18312,6.35719 -19.22848,14.28532 -3.48615,8.51174 -1.35609,18.99171 5.28232,25.33779 6.05898,6.10623 15.75809,8.07976 23.67042,4.7685 0.5486,-0.21553 1.09546,-0.44607 1.62072,-0.70718 l -5.77553,26.10558 28.81866,0 -6.03565,-28.46964 c 5.97084,4.09426 13.95675,5.09229 20.66909,2.28323 8.48046,-3.33223 14.29677,-12.25174 14.16625,-21.41789 l 0,-0.20205 c -0.023,-3.32485 -0.74719,-6.62463 -2.14095,-9.63806 -3.58066,-8.01577 -12.09017,-13.52559 -20.82915,-13.17403 -0.22079,0.002 -0.44028,0.0303 -0.6603,0.0404 1.58591,-3.19848 2.4723,-6.76749 2.42107,-10.36545 l 0,-0.18187 c -0.0229,-3.32483 -0.7472,-6.64481 -2.14096,-9.65826 -3.46875,-7.76528 -11.56151,-13.16385 -20.0088,-13.17402 z"
       id="path7840"
       inkscape:connector-curvature="0"
       sodipodi:nodetypes="cccccccccccccccccccccc" />
    <path
       sodipodi:nodetypes="ccsccccccc"
       inkscape:connector-curvature="0"
       id="path4781"
       d="m 464.80832,501.29986 c -10.02345,6.0474 -42.00711,31.07343 -38.92626,52.96578 0.0677,15.03503 7.75679,26.91852 20.92686,26.85943 4.34901,-0.0195 10.31918,-2.9776 13.7807,-5.92495 l -6.21876,27.60631 26.49282,0.45427 -6.86747,-27.48583 c 1.87152,0.89378 8.55908,4.13804 11.16915,4.12623 17.87033,-0.2837 23.42095,-14.73513 22.37819,-25.15623 -3.3011,-23.60436 -27.66379,-44.21131 -42.73523,-53.44501 z"
       style="fill:#b3b3b3;fill-opacity:1;stroke:#b3b3b3;stroke-width:1.99999988;stroke-linecap:round;stroke-linejoin:round;stroke-miterlimit:4;stroke-opacity:1;stroke-dasharray:none;stroke-dashoffset:0" />
    <path
       style="fill:#000;fill-opacity:1;stroke:#000000;stroke-width:1.99999988;stroke-linecap:round;stroke-linejoin:round;stroke-miterlimit:4;stroke-opacity:1;stroke-dasharray:none;stroke-dashoffset:0"
       d="m 459.10393,502.60666 c -10.02345,6.0474 -42.00711,31.07343 -38.92626,52.96578 0.0677,15.03503 7.75679,26.91852 20.92686,26.85943 4.34901,-0.0195 10.31918,-2.9776 13.7807,-5.92495 l -6.21876,27.60631 26.49282,0.45427 -6.86747,-27.48583 c 1.87152,0.89378 8.55908,4.13804 11.16915,4.12623 17.87033,-0.2837 23.42095,-14.73513 22.37819,-25.15623 -3.3011,-23.60436 -27.66379,-44.21131 -42.73523,-53.44501 z"
       id="path7853"
       inkscape:connector-curvature="0"
       sodipodi:nodetypes="ccsccccccc" />
  </g>
</svg>
