<svg width="22" height="19" viewBox="0 0 22 19" fill="none" xmlns="http://www.w3.org/2000/svg">
<path d="M11 3.75018C13.76 3.75018 16 5.99018 16 8.75018C16 9.26018 15.9 9.75018 15.76 10.2102L18.82 13.2702C20.21 12.0402 21.31 10.5002 22 8.74018C20.27 4.36018 16 1.25018 11 1.25018C9.73 1.25018 8.51 1.45018 7.36 1.82018L9.53 3.99018C10 3.85018 10.49 3.75018 11 3.75018ZM1.71 0.410176C1.32 0.800176 1.32 1.43018 1.71 1.82018L3.68 3.79018C2.06 5.08018 0.77 6.78018 0 8.75018C1.73 13.1402 6 16.2502 11 16.2502C12.52 16.2502 13.97 15.9502 15.31 15.4302L18.03 18.1502C18.42 18.5402 19.05 18.5402 19.44 18.1502C19.83 17.7602 19.83 17.1302 19.44 16.7402L3.13 0.410176C2.74 0.0201758 2.1 0.0201758 1.71 0.410176ZM11 13.7502C8.24 13.7502 6 11.5102 6 8.75018C6 7.98018 6.18 7.25017 6.49 6.61018L8.06 8.18018C8.03 8.36018 8 8.55018 8 8.75018C8 10.4102 9.34 11.7502 11 11.7502C11.2 11.7502 11.38 11.7202 11.57 11.6802L13.14 13.2502C12.49 13.5702 11.77 13.7502 11 13.7502ZM13.97 8.42018C13.82 7.02018 12.72 5.93018 11.33 5.78018L13.97 8.42018Z" fill="#0061A3"/>
</svg>
