<svg width="49" height="22" viewBox="0 0 49 22" fill="none" xmlns="http://www.w3.org/2000/svg">
<path d="M35.2042 8.93453C36.7286 8.28762 38.4515 8.29402 39.9631 8.95374L36.9912 12.1755L35.2042 8.93453ZM35.5116 13.8024L33.4556 10.0746C31.4508 11.9577 30.932 14.9489 32.1874 17.3956L35.5116 13.8024ZM41.7373 10.1387L38.1056 14.1675L41.1288 19.5221C43.8638 17.4853 44.4274 13.6166 42.3906 10.8817C42.1921 10.6126 41.9743 10.3629 41.7373 10.1387ZM36.6261 15.8007L33.4876 19.0993C35.0376 20.5405 37.241 21.0593 39.2714 20.4572L36.6261 15.8007Z" fill="url(#paint0_radial_8786_9708)"/>
<path d="M41.6027 11.9898C41.8525 11.1187 40.77 10.0362 39.2008 9.58786C37.6251 9.13951 36.1392 9.47898 35.8894 10.3501C35.6396 11.2212 36.722 12.3036 38.2913 12.752C39.8605 13.2067 41.3465 12.8608 41.6027 11.9898Z" fill="url(#paint1_radial_8786_9708)"/>
<path d="M41.1289 19.528L38.1058 14.1734L41.7374 10.1382C41.225 9.63858 40.6229 9.24147 39.9696 8.95324L36.9977 12.1814L35.2107 8.94043C34.5638 9.21585 33.9745 9.60015 33.4621 10.0805L35.5181 13.8083L32.1875 17.4079C32.5206 18.0484 32.9561 18.6249 33.4877 19.1116L36.6326 15.813L39.2715 20.4695C39.9376 20.2582 40.5653 19.9443 41.1289 19.528Z" fill="white"/>
<path d="M41.9109 10.3115L41.738 10.1386L38.1063 14.1674L41.1295 19.522L41.2064 19.4643L38.2921 14.3211L41.9109 10.3115ZM36.9918 12.1754L37.0623 12.0985L35.2945 8.896L35.1984 8.93443L36.9918 12.1754ZM33.4883 19.0992C33.5459 19.1569 33.61 19.2145 33.674 19.2658L36.7613 16.0248L36.6332 15.8006L33.4883 19.0992Z" fill="#1D1D1B"/>
<path d="M22.8288 17.4275C20.3116 14.7694 20.4269 10.5741 23.085 8.05689C24.0329 7.16018 25.2179 6.56451 26.5053 6.34033L21.8104 14.6925L22.8288 17.4275ZM28.952 13.6293L27.5429 8.1978L24.9617 13.2194L28.952 13.6293ZM29.394 15.5252L24.1803 14.9807L22.8288 17.4275C24.7823 19.4643 27.8247 19.9959 30.3547 18.7405L29.394 15.5252ZM29.6053 6.58372C29.3812 6.50686 29.1506 6.44281 28.9136 6.39157L32.193 17.3762C32.8719 16.6653 33.3843 15.8134 33.6918 14.8783C34.8511 11.4644 33.0256 7.74944 29.6117 6.58372H29.6053Z" fill="url(#paint2_radial_8786_9708)"/>
<path d="M32.4372 11.7014C33.0137 10.7535 32.0721 9.13301 30.3364 8.08259C28.6006 7.03216 26.7303 6.94249 26.1539 7.89044C25.5774 8.83838 26.519 10.4589 28.2547 11.5093C29.9905 12.5597 31.8608 12.643 32.4372 11.7014Z" fill="url(#paint3_radial_8786_9708)"/>
<path d="M29.3953 15.5252L24.1815 14.9808L22.8301 17.4275V17.4403C22.8941 17.5108 22.9646 17.5748 23.035 17.6453L24.3801 15.1345L29.4337 15.6597L29.3953 15.5252ZM28.9149 6.3916L32.2007 17.3955L32.316 17.2738L29.0878 6.43644C29.0302 6.41082 28.9725 6.40441 28.9149 6.3916ZM27.6339 8.5501L27.5442 8.19142L24.9758 13.213L25.2384 13.2386L27.6339 8.5501Z" fill="#1D1D1B"/>
<path d="M20.2802 6.7628C22.5091 8.2808 23.835 10.8044 23.835 13.5009C23.835 13.7571 23.8222 14.0133 23.7966 14.2631L20.2802 6.7628ZM16.4756 14.6922L16.4372 5.3729C16.1874 5.34728 15.9247 5.33447 15.6685 5.33447C13.3819 5.33447 11.2042 6.28882 9.6542 7.97335L16.4756 14.6922ZM18.064 7.15351L18.0961 16.3768L16.5653 17.0237L9.98086 10.5546L14.1441 21.5136C17.6221 22.1798 21.1321 20.5273 22.8422 17.4272L18.064 7.15351ZM7.8736 11.1054C6.79755 14.6346 8.21947 18.452 11.3451 20.412L7.8736 11.1054Z" fill="url(#paint4_radial_8786_9708)"/>
<path d="M20.6068 10.0424C20.9847 8.94073 19.5948 7.47398 17.5067 6.75661C15.4187 6.03924 13.4203 6.35309 13.0424 7.44836C12.6645 8.54362 14.0544 10.0168 16.1425 10.7341C18.2305 11.4515 20.2289 11.1377 20.6068 10.0424Z" fill="url(#paint5_radial_8786_9708)"/>
<path d="M23.7965 14.2569L20.2802 6.75659C19.1401 5.97518 17.8206 5.4948 16.4435 5.3667L16.482 14.686L9.6606 7.97996C8.83435 8.87667 8.21947 9.94631 7.86719 11.112L11.3451 20.4122C12.197 20.9438 13.1449 21.3217 14.1313 21.5074L9.98085 10.5548L16.5588 17.0239L18.0896 16.377L18.064 7.15371L22.8294 17.4274C23.3674 16.4474 23.7005 15.3714 23.7965 14.2569Z" fill="white"/>
<path d="M16.4751 14.667L9.67297 7.96733L9.66016 7.98014L16.4751 14.6926V14.667ZM9.98041 10.555L14.1437 21.514L14.2718 21.5396L10.1726 10.7471L9.98041 10.555ZM18.0636 7.15389L18.0892 16.3772L16.5776 17.0113L16.7377 17.1714L18.2621 16.5309L18.2365 7.53179L18.0636 7.15389ZM20.2797 6.76318L23.7961 14.2635C23.7961 14.1994 23.8089 14.1354 23.8153 14.0713L20.4335 6.87207L20.2797 6.76318Z" fill="#1D1D1B"/>
<path d="M32.2001 17.3889L28.9079 6.38503C28.1137 6.21209 27.3002 6.19288 26.4996 6.33379L21.8047 14.6988L22.8231 17.4273L24.1746 14.9806L29.3883 15.525L30.349 18.7468C31.0472 18.4073 31.6685 17.9461 32.2001 17.3889ZM24.9624 13.2128L27.5436 8.19125L28.9527 13.6227L24.9624 13.2128Z" fill="white"/>
<path d="M8.83456 5.64865L7.97628 6.53895L5.5872 4.22673L5.28616 4.53417L5.22852 4.61744L7.98909 7.29475L9.21886 6.02655L8.83456 5.64865ZM10.7497 3.33002C10.5639 3.00977 10.2821 2.75998 9.94263 2.62547C9.57114 2.49737 9.16122 2.54861 8.83456 2.76638C8.0019 3.28519 8.11719 4.14987 8.47588 4.73914C8.73208 5.15546 9.16122 5.52055 9.69284 5.52055C9.94263 5.52055 10.186 5.44369 10.3974 5.31559C11.23 4.77757 11.1148 3.91288 10.7497 3.33002ZM10.1476 4.89286C9.65441 5.19389 9.19324 4.84162 8.94985 4.4445C8.70646 4.04739 8.59117 3.47734 9.08436 3.1763C9.19965 3.10585 9.32775 3.06742 9.46225 3.06101C9.80172 3.06101 10.1028 3.33002 10.2821 3.62466C10.5255 4.01536 10.6408 4.58541 10.1476 4.89286ZM12.748 3.61185L12.6456 3.70152C12.5815 3.76557 12.4982 3.8104 12.415 3.84243C12.3445 3.87445 12.2677 3.86805 12.21 3.82962C12.1396 3.77197 12.0883 3.69511 12.0627 3.61185L11.5119 2.08745L12.0819 1.88248L11.9218 1.43413L11.3517 1.63909L11.0763 0.889701L10.6472 1.24198L10.8521 1.81843L10.359 1.99777L10.5255 2.44613L11.0251 2.26679L11.5247 3.63106C11.5823 3.84883 11.6912 4.05379 11.8385 4.22673C11.941 4.32281 12.0755 4.38045 12.21 4.37405C12.3125 4.37405 12.4214 4.34843 12.5175 4.3164C12.6584 4.26516 12.7865 4.1883 12.8954 4.09222L12.9466 4.04739L12.748 3.61185ZM14.4198 3.298L14.3045 3.36846C14.2276 3.4197 14.1443 3.45172 14.0547 3.47094C13.9842 3.49015 13.901 3.47094 13.8497 3.41969C13.7921 3.35564 13.7536 3.27238 13.7408 3.18271L13.4462 1.58785L14.0419 1.47897L13.9522 1.0114L13.3565 1.12028L13.2092 0.338867L12.7288 0.614284L12.8377 1.21636L12.3253 1.31243L12.415 1.78L12.9274 1.68393L13.1964 3.11225C13.2669 3.49656 13.3565 3.97053 13.8753 3.97053C13.9394 3.97053 14.0034 3.96412 14.0675 3.95131C14.2148 3.92569 14.3557 3.86805 14.4838 3.79119L14.5415 3.75276L14.4198 3.298ZM15.9314 0.889701C14.945 0.857676 14.5607 1.6455 14.5415 2.33084C14.5222 3.01618 14.8361 3.82962 15.8289 3.86805H15.8865C16.8281 3.86805 17.1931 3.09944 17.2124 2.42691C17.238 1.74798 16.9177 0.921726 15.9314 0.889701ZM15.8417 3.38127C15.2652 3.36205 15.0795 2.81122 15.0923 2.34365C15.1115 1.87608 15.3229 1.35727 15.8737 1.35727H15.9057C16.4822 1.37648 16.6679 1.92732 16.6551 2.39489C16.6423 2.86886 16.4117 3.40048 15.8417 3.38127ZM41.6028 9.61338V8.46687H41.9871L42.1664 9.24829L42.3586 8.46687H42.7301V9.61338H42.4995V8.72948L42.2817 9.61338H42.0512L41.8462 8.72948V9.61338H41.6028ZM42.9158 9.03692C42.9158 8.73589 42.9158 8.44766 43.3129 8.44766C43.5563 8.44766 43.6524 8.58216 43.646 8.82556H43.409C43.409 8.67183 43.3834 8.62059 43.3129 8.62059C43.1784 8.62059 43.1592 8.7487 43.1592 9.03692C43.1592 9.32515 43.1784 9.45325 43.3129 9.45325C43.4474 9.45325 43.4218 9.31234 43.4218 9.21626H43.6588C43.6588 9.52371 43.5371 9.63259 43.3129 9.63259C42.9158 9.63259 42.9158 9.33796 42.9158 9.03692Z" fill="#1D1D1B"/>
<defs>
<radialGradient id="paint0_radial_8786_9708" cx="0" cy="0" r="1" gradientUnits="userSpaceOnUse" gradientTransform="translate(38.2916 8.86026) scale(10.5462 10.5462)">
<stop stop-color="#0082CA"/>
<stop offset="0.38" stop-color="#0080C7"/>
<stop offset="0.62" stop-color="#007BBF"/>
<stop offset="0.81" stop-color="#0072B1"/>
<stop offset="0.98" stop-color="#00659C"/>
<stop offset="1" stop-color="#00649A"/>
</radialGradient>
<radialGradient id="paint1_radial_8786_9708" cx="0" cy="0" r="1" gradientUnits="userSpaceOnUse" gradientTransform="translate(38.6849 11.0705) rotate(16.0736) scale(2.97461 1.65694)">
<stop stop-color="white"/>
<stop offset="0.1" stop-color="#FAFCFE"/>
<stop offset="0.22" stop-color="#EAF5FA"/>
<stop offset="0.36" stop-color="#D1E8F5"/>
<stop offset="0.51" stop-color="#ADD6ED"/>
<stop offset="0.66" stop-color="#7FBFE3"/>
<stop offset="0.82" stop-color="#47A3D7"/>
<stop offset="0.99" stop-color="#0683C8"/>
<stop offset="1" stop-color="#0080C7"/>
</radialGradient>
<radialGradient id="paint2_radial_8786_9708" cx="0" cy="0" r="1" gradientUnits="userSpaceOnUse" gradientTransform="translate(29.1653 6.82991) scale(11.4074 11.4074)">
<stop stop-color="#8CBE2F"/>
<stop offset="0.37" stop-color="#8ABB2E"/>
<stop offset="0.6" stop-color="#84B32C"/>
<stop offset="0.79" stop-color="#79A529"/>
<stop offset="0.96" stop-color="#6B9024"/>
<stop offset="1" stop-color="#668A23"/>
</radialGradient>
<radialGradient id="paint3_radial_8786_9708" cx="0" cy="0" r="1" gradientUnits="userSpaceOnUse" gradientTransform="translate(30.0362 9.31665) rotate(30.9638) scale(3.67233 1.97741)">
<stop stop-color="white"/>
<stop offset="0.22" stop-color="#FEFEFC"/>
<stop offset="0.36" stop-color="#FAFCF4"/>
<stop offset="0.48" stop-color="#F2F7E5"/>
<stop offset="0.59" stop-color="#E8F1D0"/>
<stop offset="0.69" stop-color="#DBE9B5"/>
<stop offset="0.78" stop-color="#CBDF94"/>
<stop offset="0.87" stop-color="#B8D46D"/>
<stop offset="0.95" stop-color="#A2C740"/>
<stop offset="1" stop-color="#92BD1F"/>
</radialGradient>
<radialGradient id="paint4_radial_8786_9708" cx="0" cy="0" r="1" gradientUnits="userSpaceOnUse" gradientTransform="translate(17.9894 6.38033) scale(14.565 14.565)">
<stop stop-color="#0082CA"/>
<stop offset="0.36" stop-color="#0080C7"/>
<stop offset="0.59" stop-color="#007BBF"/>
<stop offset="0.77" stop-color="#0072B1"/>
<stop offset="0.94" stop-color="#00659C"/>
<stop offset="1" stop-color="#005F92"/>
</radialGradient>
<radialGradient id="paint5_radial_8786_9708" cx="0" cy="0" r="1" gradientUnits="userSpaceOnUse" gradientTransform="translate(16.9071 8.60524) rotate(19.0935) scale(3.99878 2.09888)">
<stop stop-color="white"/>
<stop offset="0.1" stop-color="#FAFCFE"/>
<stop offset="0.22" stop-color="#EAF5FA"/>
<stop offset="0.36" stop-color="#D1E8F5"/>
<stop offset="0.51" stop-color="#ADD6ED"/>
<stop offset="0.66" stop-color="#7FBFE3"/>
<stop offset="0.82" stop-color="#47A3D7"/>
<stop offset="0.99" stop-color="#0683C8"/>
<stop offset="1" stop-color="#0080C7"/>
</radialGradient>
</defs>
</svg>
