<svg width="45" height="22" viewBox="0 0 45 22" fill="none" xmlns="http://www.w3.org/2000/svg">
<g clip-path="url(#clip0_8786_9662)">
<path d="M8.5332 17.0942C10.3363 18.4208 12.2704 19.2358 14.3782 19.364V18.9727C12.3546 18.7057 10.4127 18.0457 8.5332 17.0942Z" fill="#FDB927"/>
<path d="M15.6603 2.97949L14.457 14.3709L17.8199 14.1674L18.2518 8.33611L19.8869 14.0319L21.5891 13.8781L22.9412 8.84472L23.4966 13.7267L26.1807 13.5052L24.8232 3.9966L21.954 3.82706L20.6891 9.08202L19.3008 3.48799L15.6603 2.97949Z" fill="#808080"/>
<path d="M26.3027 4.11572L26.3708 13.5156L30.7362 13.1344L30.7298 11.1845H28.8325L28.8171 10.1844L30.5294 10.1674V7.98062L28.8325 7.96374L28.8017 7.0314L30.7145 7.09916L30.6835 4.64122L26.3027 4.11572Z" fill="#808080"/>
<path d="M35.0563 7.90689L36.5835 6.88978C36.2274 6.26382 35.9983 5.60433 35.0409 5.09298C34.4719 4.75379 33.4653 4.63858 32.7733 5.10987C31.7694 5.69802 31.135 6.97823 31.1381 8.16119C31.0698 9.34855 31.1117 10.5499 31.6626 11.5515C32.578 13.2226 33.8897 13.273 35.1566 12.772C35.7515 12.4945 36.6079 11.5805 36.6297 10.2802L36.7223 8.44938L34.0999 8.3815L34.0845 10.1275L34.902 10.1445C34.8555 10.5597 34.7294 10.8463 34.0073 10.8903C33.7286 10.8588 33.0391 10.7469 33.0664 9.75468L33.1281 8.08487C33.1436 7.71785 33.6055 7.1423 34.1924 7.16108C34.5384 7.1719 34.8524 7.35036 35.0563 7.90689V7.90689Z" fill="#808080"/>
<path d="M38.2137 5.30322L36.623 12.637L38.1804 12.5248L38.3514 11.6116H39.4435L39.5642 12.4053L40.9762 12.2878L39.8756 5.40749L38.2137 5.30322ZM39.0114 7.72954L39.339 9.99928L38.6125 9.98359L39.0114 7.72954Z" fill="#808080"/>
<path d="M16.1836 2.59668L14.9805 13.9881L18.3432 13.7846L18.7752 7.95329L20.4103 13.649L22.1124 13.4953L23.4646 8.46191L24.0199 13.3439L26.704 13.1223L25.3465 3.61367L22.4774 3.44425L21.2124 8.69921L19.8241 3.10518L16.1836 2.59668Z" fill="white"/>
<path d="M26.8262 3.73242L26.8942 13.1323L31.2598 12.7511L31.2534 10.8012H29.356L29.3406 9.80107L31.0528 9.78407V7.59731L29.356 7.58031L29.3251 6.64797L31.2379 6.71586L31.2071 4.25792L26.8262 3.73242Z" fill="white"/>
<path d="M35.5797 7.52411L37.1069 6.50701C36.7507 5.88105 36.5217 5.22144 35.5643 4.71021C34.9952 4.3709 33.9886 4.25581 33.2967 4.72709C32.2928 5.31525 31.6583 6.59546 31.6616 7.77842C31.5932 8.96578 31.6351 10.1672 32.1861 11.1687C33.1015 12.8398 34.4131 12.8902 35.68 12.3892C36.275 12.1117 37.1312 11.1977 37.1532 9.89729L37.2457 8.06661L34.6233 7.99872L34.6079 9.74475L35.4255 9.76175C35.3789 10.1768 35.2527 10.4636 34.5308 10.5076C34.2521 10.476 33.5625 10.3642 33.5897 9.37179L33.6515 7.70209C33.667 7.33508 34.1289 6.75953 34.7159 6.77819C35.0618 6.78913 35.3758 6.96759 35.5797 7.52411V7.52411Z" fill="white"/>
<path d="M38.7372 4.91992L37.1465 12.2538L38.704 12.1416L38.8749 11.2284H39.967L40.0876 12.0221L41.4998 11.9045L40.3991 5.02431L38.7372 4.91992ZM39.5349 7.34624L39.8626 9.6161L39.1361 9.60041L39.5349 7.34624Z" fill="white"/>
<path d="M16.4455 2.4043L15.2422 13.7958L18.605 13.5924L19.0369 7.76103L20.6721 13.4567L22.3743 13.303L23.7264 8.26964L24.2817 13.1516L26.9658 12.93L25.6084 3.42141L22.7392 3.25199L21.4742 8.50695L20.0859 2.91291L16.4455 2.4043Z" fill="#EE1D25"/>
<path d="M27.0879 3.53955L27.1559 12.9395L31.5214 12.5583L31.515 10.6084H29.6177L29.6022 9.60819L31.3145 9.59131V7.40456L29.6177 7.38756L29.5868 6.45522L31.4996 6.52311L31.4687 4.06505L27.0879 3.53955Z" fill="#EE1D25"/>
<path d="M35.8415 7.33223L37.3687 6.31512C37.0125 5.68916 36.7835 5.02956 35.826 4.51821C35.257 4.17902 34.2504 4.06393 33.5585 4.53521C32.5546 5.12336 31.9202 6.40358 31.9233 7.58654C31.8549 8.7739 31.8969 9.97517 32.4478 10.9768C33.3632 12.6479 34.6749 12.6984 35.9418 12.1974C36.5367 11.9199 37.393 11.0058 37.4149 9.70541L37.5075 7.87461L34.8851 7.80684L34.8696 9.55287L35.6872 9.56987C35.6407 9.98492 35.5145 10.2717 34.7926 10.3157C34.5138 10.2842 33.8243 10.1723 33.8516 9.17991L33.9132 7.51021C33.9288 7.1432 34.3907 6.56765 34.9777 6.58631C35.3236 6.59725 35.6375 6.77571 35.8415 7.33223V7.33223Z" fill="#EE1D25"/>
<path d="M38.9989 4.72754L37.4082 12.0614L38.9656 11.9492L39.1365 11.036H40.2287L40.3493 11.8297L41.7614 11.7121L40.6608 4.83192L38.9989 4.72754ZM39.7966 7.15385L40.1242 9.42371L39.3977 9.40801L39.7966 7.15385Z" fill="#EE1D25"/>
<path d="M17.1649 7.23074C17.1649 9.95512 15.1827 12.1636 12.7377 12.1636C10.2927 12.1636 8.31055 9.95512 8.31055 7.23074C8.31055 4.50636 10.2927 2.29785 12.7377 2.29785C15.1827 2.29785 17.1649 4.50636 17.1649 7.23074Z" fill="#FDB927"/>
<path d="M17.1649 7.23074C17.1649 9.95512 15.1827 12.1636 12.7377 12.1636C10.2927 12.1636 8.31055 9.95512 8.31055 7.23074C8.31055 4.50636 10.2927 2.29785 12.7377 2.29785C15.1827 2.29785 17.1649 4.50636 17.1649 7.23074Z" fill="url(#paint0_radial_8786_9662)"/>
<path d="M17.4267 7.03933C17.4267 9.76371 15.4446 11.9722 12.9995 11.9722C10.5544 11.9722 8.57227 9.76371 8.57227 7.03933C8.57227 4.31495 10.5544 2.10645 12.9995 2.10645C15.4446 2.10645 17.4267 4.31495 17.4267 7.03933Z" fill="url(#paint1_radial_8786_9662)"/>
<path d="M12.2411 7.33613L11.111 6.71326L9.95126 7.75486L10.378 6.3025L8.72266 5.33544L10.5403 5.39774L10.9164 4.08008L11.3916 5.38514L12.6908 5.38133L11.7667 6.16114L12.2411 7.33613Z" fill="#214489"/>
<path d="M14.3042 4.94485L13.3277 4.54348L12.6367 5.40151L12.6715 4.13699L11.6172 3.36836L12.7254 3.27813L12.831 2.35352L13.4063 3.27302L14.3043 3.25292L13.775 3.95759L14.3042 4.94485Z" fill="#214489"/>
<path d="M16.2072 5.35579L15.571 5.24344L15.358 6.02919L15.0196 5.12431L14.3125 4.94776L14.9502 4.51785L14.8649 3.60596L15.3815 4.24511L15.8857 3.86122L15.7176 4.68311L16.2072 5.35579Z" fill="#214489"/>
<path d="M16.1773 8.36284L15.7382 7.48733L15.0703 7.58375L15.5456 6.95363L15.3185 6.07028L15.8326 6.48413L16.2734 5.90918L16.2602 6.78231L16.8558 7.17893L16.2052 7.30329L16.1773 8.36284Z" fill="#214489"/>
<path d="M12.9524 10.6371L12.1283 9.94995L10.7449 11.0773L11.3714 9.57949L10.1074 8.55537L11.811 8.59722L12.2312 7.33936L12.6305 8.55347L13.7037 8.5858L12.7787 9.31543L12.9524 10.6371Z" fill="#214489"/>
<path d="M16.0753 8.94646L15.1888 8.77954L15.065 7.62939L14.5935 8.68859L13.6973 8.58302L14.2924 9.40443L13.8623 10.4893L14.7016 9.93789L15.2955 10.6491L15.2555 9.55162L16.0753 8.94646Z" fill="#214489"/>
<path d="M11.4219 12.9323C14.2141 14.4465 16.9477 12.8315 17.741 10.0322C16.3889 12.3589 13.1029 13.1936 11.4219 12.9323V12.9323Z" fill="#FDB927"/>
<path d="M8.23272 5.08988C8.51985 4.10237 9.38515 2.83489 10.3309 2.51031C10.0167 2.29703 8.35984 0.849654 5.70693 1.33152C3.31324 1.93465 3.56737 4.92926 3.91574 6.14027C3.94084 5.41588 3.87041 4.42944 4.27839 3.85437C4.48006 3.60446 5.70466 3.03414 8.10516 4.97408C8.29709 5.12769 7.69166 4.61658 8.23272 5.08988Z" fill="#FDB927"/>
<path d="M7.8068 5.75538C7.07631 5.00352 6.25417 4.42547 5.23773 3.98796C4.01995 9.76413 8.69493 14.126 11.6747 16.3224C9.19541 15.8252 2.79005 11.126 2.85994 4.54912C2.84523 4.10043 3.12274 0.816079 6.38324 0.708008C8.48125 0.754732 9.36646 1.27381 10.2243 1.71156" stroke="#FDB927" stroke-width="2.95"/>
<path d="M7.70091 5.88506L8.02667 6.21343L8.11723 5.81123L7.89782 5.6084L7.75804 5.72277L7.6875 5.80385L7.70091 5.88506Z" fill="#FDB927"/>
<path d="M10.1445 1.86366C10.3824 2.00716 10.6157 2.15173 10.8395 2.29856L11.3331 2.1805C10.9766 1.96852 10.5386 1.66558 10.2747 1.54443L10.1714 1.67878L10.1445 1.86366Z" fill="#FDB927"/>
<path d="M10.7285 16.1959C11.306 16.4609 12.4249 16.7576 13.3269 16.7001C12.3855 16.4863 12.1525 16.4946 11.437 15.936L11.0241 15.9905L10.7285 16.1959Z" fill="#FDB927"/>
<path d="M4.6384 4.16943C4.17816 5.88003 4.51895 7.86443 5.36359 10.1023C4.3874 8.27199 2.97704 6.46878 4.6384 4.16943V4.16943Z" fill="#EE1D25"/>
<path d="M8.04942 3.22461C7.04888 5.21472 6.82244 7.23633 7.75395 9.30515C7.24113 7.2783 7.41737 5.25145 8.04942 3.22461Z" fill="#EE1D25"/>
<path d="M41.3025 13.7125L41.0417 14.5151L40.6244 14.3201C40.2827 14.231 40.2435 14.675 40.4261 14.71L40.833 14.8246C41.083 14.913 41.1781 15.1231 41.2295 15.2603C41.3471 15.7147 41.247 15.9034 41.1981 16.1545C41.0364 16.6345 40.7308 16.8411 40.3531 16.9112C39.879 16.9886 39.6396 16.8853 39.3516 16.8195L39.6749 15.8564C39.734 16.1059 40.0007 16.1133 40.0715 16.1316C40.2293 16.1759 40.3551 16.1058 40.4157 16.0169C40.5032 15.8503 40.4039 15.734 40.3114 15.6959L39.8524 15.5927C39.5759 15.5118 39.4985 15.1425 39.4507 14.9221C39.42 14.629 39.4519 14.3685 39.5889 14.1172C39.6968 13.893 39.8233 13.743 40.0137 13.5841C40.1886 13.4563 40.4996 13.4054 40.7391 13.4488C41.126 13.5368 41.1469 13.6246 41.3025 13.7125Z" fill="#808080"/>
<path d="M14.6014 14.9882L13.877 20.8043L16.195 20.4696L16.2516 17.465L17.4389 20.2515L18.6452 20.0835L19.4881 17.1338L19.9115 19.8976L21.6801 19.6072L20.6936 14.7471L18.6429 14.7802L17.92 17.7746L16.9962 14.8776L14.6014 14.9882Z" fill="#808080"/>
<path d="M22.1426 14.6637L23.9756 14.5186L24.0377 19.242L22.3163 19.5134L22.1426 14.6637Z" fill="#808080"/>
<path d="M24.709 14.4606L26.38 14.3613L26.3972 17.464L27.6873 17.3216L27.6824 18.7156L24.7307 19.1754L24.709 14.4606Z" fill="#808080"/>
<path d="M31 14.1205L32.2708 14.0112L32.285 18.0322L31 18.2524V14.1205Z" fill="#808080"/>
<path d="M35.9395 16.5724C35.4837 17.5983 34.4313 18.0942 33.589 17.68C32.7466 17.2659 32.4332 16.0985 32.889 15.0726C33.3448 14.0467 34.3972 13.5509 35.2396 13.965C36.082 14.3792 36.3953 15.5466 35.9395 16.5724V16.5724Z" fill="#808080"/>
<path d="M28.0723 14.304L29.4901 14.2114L29.5047 17.1077L30.5995 16.9748L30.5952 18.2759L28.0908 18.7054L28.0723 14.304Z" fill="#808080"/>
<path d="M36.4768 13.7212L36.4512 17.4278L37.3636 17.2927L37.3944 15.3547L38.1428 17.1462L39.1066 17.0785L39.1783 13.5747L38.2658 13.6311L38.3017 15.6139L37.4559 13.6592L36.4768 13.7212Z" fill="#808080"/>
<path d="M41.6502 13.3517L41.3894 14.1542L40.972 13.9593C40.6304 13.8701 40.5911 14.3142 40.7738 14.3491L41.1807 14.4638C41.4307 14.5522 41.5258 14.7623 41.5772 14.8994C41.6947 15.3538 41.5947 15.5426 41.5458 15.7937C41.3841 16.2735 41.0783 16.4801 40.7007 16.5504C40.2265 16.6277 39.9872 16.5245 39.6992 16.4586L40.0226 15.4956C40.0817 15.745 40.3484 15.7523 40.4191 15.7707C40.577 15.8151 40.7028 15.7449 40.7634 15.6561C40.8509 15.4893 40.7516 15.3732 40.659 15.3351L40.1999 15.2319C39.9236 15.1509 39.8461 14.7817 39.7983 14.5613C39.7676 14.2681 39.7994 14.0077 39.9366 13.7562C40.0445 13.5321 40.1708 13.3822 40.3613 13.2231C40.5363 13.0954 40.8471 13.0446 41.0867 13.088C41.4735 13.1758 41.4944 13.2638 41.6502 13.3517V13.3517Z" fill="white"/>
<path d="M14.9296 14.648L14.2051 20.4641L16.5231 20.1294L16.5797 17.1248L17.7671 19.9111L18.9733 19.7433L19.8163 16.7935L20.2397 19.5573L22.0082 19.267L21.0218 14.4067L18.971 14.4399L18.2481 17.4344L17.3243 14.5374L14.9296 14.648Z" fill="white"/>
<path d="M22.4531 14.324L24.2863 14.1787L24.3483 18.9022L22.627 19.1737L22.4531 14.324Z" fill="white"/>
<path d="M25.0195 14.0368L26.6904 13.9375L26.7077 17.0402L27.9978 16.8979L27.9928 18.2918L25.0413 18.7517L25.0195 14.0368Z" fill="white"/>
<path d="M31.3672 13.7162L32.6379 13.6069L32.6521 17.6278L31.3672 17.848V13.7162Z" fill="white"/>
<path d="M36.3087 16.1682C35.8529 17.1939 34.8004 17.6898 33.958 17.2757C33.1157 16.8615 32.8023 15.6941 33.2581 14.6682C33.7139 13.6425 34.7663 13.1466 35.6087 13.5608C36.451 13.9749 36.7645 15.1423 36.3087 16.1682V16.1682Z" fill="white"/>
<path d="M28.4375 13.9012L29.8554 13.8086L29.87 16.705L30.9647 16.5721L30.9605 17.8732L28.456 18.3026L28.4375 13.9012Z" fill="white"/>
<path d="M36.842 13.3599L36.8164 17.0664L37.7288 16.9312L37.7596 14.9934L38.5079 16.7847L39.4717 16.7172L39.5434 13.2134L38.631 13.2697L38.6669 15.2526L37.821 13.2979L36.842 13.3599Z" fill="white"/>
<path d="M41.8084 13.1993L41.5476 14.0019L41.1303 13.807C40.7886 13.7179 40.7493 14.1618 40.9321 14.1968L41.339 14.3114C41.589 14.4 41.684 14.6101 41.7354 14.7471C41.853 15.2015 41.7529 15.3902 41.7041 15.6414C41.5424 16.1213 41.2366 16.3279 40.859 16.398C40.3848 16.4754 40.1455 16.3721 39.8574 16.3064L40.1809 15.3433C40.24 15.5927 40.5066 15.6001 40.5773 15.6185C40.7353 15.6627 40.861 15.5926 40.9216 15.5038C41.0091 15.3371 40.9099 15.2208 40.8173 15.1828L40.3582 15.0796C40.0818 14.9987 40.0043 14.6293 39.9565 14.4089C39.9259 14.1158 39.9577 13.8555 40.0949 13.604C40.2027 13.3798 40.3291 13.2299 40.5195 13.0709C40.6945 12.9431 41.0054 12.8922 41.2451 12.9356C41.6318 13.0236 41.6527 13.1114 41.8084 13.1993V13.1993Z" fill="#33337A"/>
<path d="M15.1074 14.4756L14.3828 20.2916L16.7009 19.9571L16.7575 16.9523L17.9448 19.7388L19.151 19.5709L19.9941 16.6211L20.4174 19.385L22.186 19.0945L21.1995 14.2344L19.1488 14.2675L18.4258 17.2619L17.502 14.365L15.1074 14.4756Z" fill="#33337A"/>
<path d="M22.6484 14.1925L24.4816 14.0474L24.5436 18.7709L22.8222 19.0422L22.6484 14.1925Z" fill="#33337A"/>
<path d="M25.2148 13.9474L26.8858 13.8481L26.903 16.9508L28.1932 16.8084L28.1882 18.2024L25.2366 18.6624L25.2148 13.9474Z" fill="#33337A"/>
<path d="M31.5059 13.6073L32.7766 13.498L32.7907 17.519L31.5059 17.7392V13.6073Z" fill="#33337A"/>
<path d="M36.4454 16.0593C35.9896 17.0851 34.9372 17.581 34.0948 17.1668C33.2525 16.7527 32.939 15.5853 33.3948 14.5594C33.8507 13.5336 34.9031 13.0377 35.7455 13.4518C36.5878 13.866 36.9012 15.0334 36.4454 16.0593V16.0593Z" fill="#33337A"/>
<path d="M28.5781 13.7703L29.9961 13.6777L30.0107 16.574L31.1053 16.4412L31.1201 17.7633L28.5966 18.1718L28.5781 13.7703Z" fill="#33337A"/>
<path d="M36.9826 13.208L36.957 16.9146L37.8694 16.7795L37.9002 14.8417L38.6486 16.633L39.6123 16.5653L39.6841 13.0615L38.7716 13.1179L38.8075 15.1007L37.9617 13.1461L36.9826 13.208Z" fill="#33337A"/>
<path d="M35.0586 13.8721L34.787 14.8133L33.6172 14.9282L34.5573 15.5479L34.3066 16.6958L35.1004 15.9153L35.8316 16.2826L35.5601 15.4332L36.2077 14.7445L35.4138 14.7904L35.0586 13.8721Z" fill="white"/>
</g>
<defs>
<radialGradient id="paint0_radial_8786_9662" cx="0" cy="0" r="1" gradientUnits="userSpaceOnUse" gradientTransform="translate(10.955 5.64949) rotate(73.087) scale(5.12342 5.09331)">
<stop stop-color="#FFF6D5"/>
<stop offset="1" stop-color="#FFF6D5" stop-opacity="0"/>
</radialGradient>
<radialGradient id="paint1_radial_8786_9662" cx="0" cy="0" r="1" gradientUnits="userSpaceOnUse" gradientTransform="translate(11.2873 5.66627) rotate(76.2969) scale(2.07923 2.30188)">
<stop stop-color="#FFF6D5"/>
<stop offset="1" stop-color="#FFF6D5" stop-opacity="0"/>
</radialGradient>
<clipPath id="clip0_8786_9662">
<rect width="44.6667" height="22" fill="white" transform="translate(0 0.000488281)"/>
</clipPath>
</defs>
</svg>
