<svg width="50" height="22" viewBox="0 0 50 22" fill="none" xmlns="http://www.w3.org/2000/svg">
<g clip-path="url(#clip0_8786_9785)">
<g clip-path="url(#clip1_8786_9785)">
<path d="M9.43004 12.2557H9.42815C9.42815 12.2557 7.71954 12.1426 6.13903 12.1426C4.55851 12.1426 2.88192 12.2372 2.88192 12.2372H2.84048C2.81787 12.393 2.80469 12.5543 2.80469 12.7157C2.80469 12.8789 2.81599 13.0384 2.84048 13.196C2.8499 13.196 4.55286 13.3091 6.12961 13.3091C7.71012 13.3091 9.38671 13.2146 9.38671 13.2146H9.42627C9.45076 13.0513 9.46395 12.8863 9.46395 12.7157C9.46206 12.5599 9.45076 12.4059 9.43004 12.2557Z" fill="#098342"/>
<path d="M8.7496 14.7407C8.99638 14.4329 9.18664 14.0805 9.30909 13.6984C9.30344 13.6984 7.39702 13.8116 6.12734 13.8116C4.85577 13.8116 2.95689 13.6929 2.95312 13.6929C3.07557 14.0768 3.26772 14.431 3.5145 14.7407H3.5258C3.5258 14.7407 4.42249 15.0152 6.12734 15.0152C7.83218 15.0152 8.7496 14.7407 8.7496 14.7407Z" fill="#098342"/>
<path d="M4.22127 10.0412C4.22127 10.0412 5.29127 9.91141 6.13898 9.91141C6.9867 9.91141 8.0567 10.0486 8.0567 10.0486L8.08495 10.0598C7.53677 9.66845 6.86237 9.43848 6.13522 9.43848C5.40618 9.43848 4.73178 9.66845 4.18359 10.0598L4.22127 10.0412Z" fill="#098342"/>
<path d="M6.12865 15.5269C5.28094 15.5269 4.21094 15.3896 4.21094 15.3896C4.75347 15.768 5.41657 15.9905 6.1343 15.9905C6.84638 15.9905 7.50571 15.7698 8.04636 15.3971C8.03694 15.3989 6.97259 15.5269 6.12865 15.5269Z" fill="#098342"/>
<path d="M2.9548 11.7513C2.9548 11.7513 4.86498 11.6381 6.13655 11.6381C7.40812 11.6381 9.31076 11.7568 9.31076 11.7568L9.31641 11.7587C9.19585 11.3692 9.0037 11.0113 8.75692 10.6978H8.73808C8.73808 10.6978 7.84139 10.4233 6.13655 10.4233C4.4317 10.4233 3.51429 10.6978 3.51429 10.6978H3.50676C3.25998 11.0094 3.06783 11.3673 2.94727 11.755L2.9548 11.7513Z" fill="#098342"/>
<path d="M11.4567 16.2301H10.0062V15.4771H10.6919V6.523H1.62323V15.4771H2.25619V16.2301H0.832031V5.77002H11.4567V16.2301Z" fill="#098342"/>
<path d="M15.8763 12.8118H13.4707V9.18604H14.4748V11.9179H15.8744V12.8118H15.8763Z" fill="#098342"/>
<path d="M17.0705 12.8118H16.0137L17.5151 9.18604H18.4325L19.9339 12.8118H18.8714L18.6811 12.3389H17.2645L17.0705 12.8118ZM17.9728 10.4509L17.5283 11.5748H18.4155L17.9728 10.4509Z" fill="#098342"/>
<path d="M22.9611 12.8118H21.957V9.18604H23.6845C23.984 9.18604 24.2666 9.29175 24.5303 9.50318C24.6641 9.60703 24.7733 9.74428 24.8562 9.91676C24.9391 10.0892 24.9805 10.2747 24.9805 10.4769C24.9805 10.8441 24.8449 11.1519 24.5736 11.3967C24.3061 11.6397 24.0104 11.7603 23.6864 11.7603H22.963V12.8118H22.9611ZM22.9611 10.0818V10.8663H23.643C23.692 10.8663 23.7542 10.8496 23.8277 10.8144C23.9369 10.7699 23.9915 10.6568 23.9915 10.4769C23.9915 10.2895 23.9369 10.1727 23.8277 10.1282C23.7542 10.0967 23.6901 10.0818 23.6374 10.0818H22.9611Z" fill="#098342"/>
<path d="M26.4006 12.8118H25.3965V9.18604H27.0712C27.4366 9.18604 27.7494 9.30659 28.0056 9.54954C28.2618 9.7925 28.3917 10.0874 28.3917 10.4342C28.3917 10.6623 28.3352 10.8719 28.2203 11.0592C28.1054 11.2465 27.9528 11.3838 27.7625 11.4709L28.6818 12.8137H27.5308L26.7811 11.6842H26.7698H26.4006V12.8118ZM26.4006 10.0818V10.8941H26.96C27.0938 10.8941 27.1993 10.8571 27.2765 10.7829C27.3538 10.7087 27.3933 10.603 27.3933 10.4676C27.3933 10.3526 27.3594 10.2599 27.2935 10.1894C27.2257 10.1189 27.1428 10.0818 27.0448 10.0818H26.4006Z" fill="#098342"/>
<path d="M30.0158 12.8118H29.0117V9.18604H30.0158V12.8118Z" fill="#098342"/>
<path d="M31.5712 12.8118H30.6406V9.18604H31.4657L32.6601 10.8348L33.8544 9.18604H34.6795V12.8118H33.7489V10.8923L32.6601 12.3741L31.5712 10.8923V12.8118Z" fill="#098342"/>
<path d="M36.3048 12.8118H35.3008V9.18604H36.3048V12.8118Z" fill="#098342"/>
<path d="M38.6492 12.8119H37.6451V10.0819H36.6523V9.18799H39.6212V10.0819H38.6492V12.8119Z" fill="#098342"/>
<path d="M40.9748 12.8118H39.9707V9.18604H40.9748V12.8118Z" fill="#098342"/>
<path d="M43.7432 12.8118H42.8182L41.3281 9.18604H42.3906L43.2835 11.4079L44.1708 9.18604H45.2333L43.7432 12.8118Z" fill="#098342"/>
<path d="M45.6408 12.8118H44.584L46.0854 9.18604H47.0047L48.5061 12.8118H47.4436L47.2533 12.3389H45.8367L45.6408 12.8118ZM46.545 10.4509L46.1004 11.5748H46.9877L46.545 10.4509Z" fill="#098342"/>
</g>
</g>
<defs>
<clipPath id="clip0_8786_9785">
<rect width="48.8889" height="22" fill="white" transform="translate(0.224609)"/>
</clipPath>
<clipPath id="clip1_8786_9785">
<rect width="48.8889" height="15.1556" fill="white" transform="translate(0.224609 3.42236)"/>
</clipPath>
</defs>
</svg>
