<svg width="37" height="22" viewBox="0 0 37 22" fill="none" xmlns="http://www.w3.org/2000/svg">
<path d="M19.7684 3.19436C22.8763 3.334 25.2841 6.04293 25.1161 9.17077C25.0321 10.5392 24.4722 11.768 23.6042 12.6617C22.6523 12.522 21.7003 12.7455 20.8324 13.0806H19.9644L19.8524 13.5274C19.4044 13.7788 18.9565 14.0301 18.5365 14.3373L18.4805 14.3652H18.1165C15.4566 13.7508 13.5807 11.3212 13.7487 8.50052C13.9447 5.37268 16.6046 2.99887 19.7684 3.19436V3.19436ZM21.7843 14.0301C21.7283 14.058 21.7003 14.086 21.6443 14.086V14.058C21.7003 14.058 21.7283 14.0301 21.7843 14.0301Z" fill="#FF7A1B"/>
<path d="M27.4963 7.38336C26.9643 7.3275 26.4044 7.24372 26.0124 6.93652C25.5084 6.51762 25.3964 5.987 25.4524 5.45638C25.5364 5.00955 25.8444 4.59064 26.1804 4.22759C25.5364 4.47893 24.8085 4.61857 24.2485 4.06003C23.6885 3.50148 23.8565 2.71952 24.0525 2.02134C23.4365 2.52403 22.7086 2.97087 21.8966 2.63574C21.0847 2.27269 20.9727 1.26731 20.9447 0.485352C20.6367 1.21146 20.1887 1.93756 19.2927 1.99342C18.3968 2.04927 17.8368 1.37902 17.4168 0.680842C17.4168 1.01597 17.4168 1.35109 17.3329 1.65829C17.2489 1.96549 17.1369 2.21683 16.9689 2.41233C16.8849 2.52403 16.7449 2.60782 16.6329 2.6916C16.2969 2.88709 15.9329 2.97087 15.5129 2.88709C15.093 2.80331 14.673 2.55196 14.309 2.30062C14.645 3.02672 14.897 3.83661 14.337 4.53479C13.777 5.23297 12.8531 5.23297 12.0971 5.0654C12.6851 5.59602 13.2731 6.23834 13.0491 7.10409C12.8251 7.96983 11.9851 8.30495 11.2012 8.47252C11.9571 8.69593 12.7411 9.05899 12.9091 9.95266C13.0491 10.8184 12.4051 11.4328 11.7611 11.9076C12.5451 11.8238 13.4131 11.8238 13.917 12.5778C14.421 13.3318 14.057 14.1138 13.665 14.812C14.253 14.4769 14.897 14.1697 15.5409 14.3931C15.7649 14.3931 15.9889 14.421 16.2129 14.4769L16.4649 14.5606C16.6329 14.6165 16.7729 14.7282 16.9129 14.8399C16.9969 14.9237 17.0529 15.0075 17.1089 15.0913L17.2489 14.4769H18.2848C15.7089 13.9183 13.805 11.6841 13.805 8.94728C13.805 7.41129 14.421 6.04285 15.429 5.00955C16.8569 3.64112 18.4808 3.1105 20.1887 3.33392C22.1486 3.55734 23.7445 4.78613 24.5845 6.43384H24.6125C25.2564 7.99776 25.4524 9.64546 24.5285 11.5166C24.3045 11.9634 23.9965 12.3823 23.6605 12.7733C23.8285 12.8012 23.9685 12.8292 24.1365 12.8571C24.4165 12.9129 24.6685 12.9967 24.9205 13.1364C25.3404 13.3318 25.7044 13.6111 26.0124 13.9462L26.0404 13.9742C25.5644 13.3598 25.1164 12.6057 25.5084 11.7958C25.5364 11.7121 25.5924 11.6562 25.6204 11.6004C25.9284 11.1535 26.3204 11.0139 26.7124 10.9022C26.9643 10.8463 27.2443 10.8184 27.4963 10.8184C27.2163 10.6508 26.9083 10.4833 26.6844 10.2599C26.0124 9.61753 26.0404 8.75179 26.3764 8.27703C26.6564 7.91397 27.1043 7.66263 27.5803 7.43921L27.4963 7.38336V7.38336Z" fill="#F7D300"/>
<path d="M36.2589 16.0129C36.2589 15.7616 36.1749 15.5661 36.0629 15.3706C35.9229 15.203 35.7829 15.0634 35.5589 14.9517C35.3629 14.84 35.0829 14.7841 34.7749 14.7841C34.187 14.7841 33.655 14.9517 33.263 15.3148C32.871 15.6499 32.591 16.1526 32.451 16.7949C32.3671 17.1021 32.3391 17.3534 32.3671 17.6048C32.3671 17.8561 32.451 18.0516 32.563 18.2471C32.703 18.4147 32.843 18.5543 33.067 18.666C33.291 18.7777 33.571 18.8336 33.879 18.8336C34.187 18.8336 34.4669 18.7777 34.7189 18.6939C34.9709 18.6102 35.1949 18.4705 35.3909 18.303C35.5869 18.1354 35.7549 17.912 35.8949 17.6606C36.0349 17.4093 36.1469 17.13 36.2029 16.8228C36.2588 16.5156 36.2868 16.2643 36.2589 16.0129ZM35.1669 16.767C34.9989 17.5489 34.6349 17.9399 34.047 17.9399C33.907 17.9399 33.767 17.912 33.683 17.8561C33.599 17.8003 33.543 17.7165 33.487 17.6048C33.459 17.4931 33.431 17.3814 33.431 17.2417C33.431 17.1021 33.459 16.9625 33.487 16.7949L33.431 16.767C33.515 16.3481 33.655 16.0688 33.851 15.8733C34.047 15.6778 34.271 15.594 34.5509 15.594C34.7189 15.594 34.8589 15.622 34.9429 15.6778C35.0549 15.7337 35.1109 15.8174 35.1669 15.9292C35.1949 16.0129 35.2229 16.1526 35.2229 16.2922C35.2229 16.4318 35.1949 16.5994 35.1669 16.767ZM30.0432 14.8679H30.6031L30.7151 14.3373L31.7791 14.058L31.6111 14.8679H32.619L32.4231 15.7337H31.4151L31.1071 17.0742C31.0511 17.3814 31.0231 17.6048 31.0511 17.7444C31.0791 17.8841 31.1911 17.9399 31.3591 17.9399C31.4711 17.9399 31.5551 17.9399 31.6391 17.912L31.8911 17.8282L31.9191 18.6102C31.7511 18.666 31.5551 18.7498 31.3591 18.7777C31.1631 18.8336 30.9671 18.8615 30.7711 18.8615C30.4072 18.8615 30.1552 18.7777 30.0152 18.5822C29.8752 18.3867 29.8752 18.0795 29.9592 17.6886L30.3792 15.7616H29.8192L30.0432 14.8679V14.8679ZM26.8793 14.7841H27.4393L27.5513 14.2535L28.6152 13.9742L28.4473 14.7841H29.4552L29.2592 15.6499H28.2513L27.9433 16.9904C27.8873 17.2976 27.8593 17.521 27.8873 17.6606C27.9153 17.8003 28.0273 17.8561 28.1953 17.8561C28.3073 17.8561 28.3913 17.8561 28.4753 17.8282L28.7272 17.7444L28.7552 18.5264C28.5873 18.5822 28.3913 18.666 28.1953 18.6939C27.9993 18.7498 27.8033 18.7777 27.6073 18.7777C27.2433 18.7777 26.9913 18.6939 26.8513 18.4984C26.7113 18.303 26.7113 17.9958 26.7953 17.6048L27.2153 15.6778H26.6554L26.8793 14.7841V14.7841ZM26.5714 15.985C26.5434 15.7337 26.4874 15.5102 26.3754 15.3427C26.2634 15.1472 26.0954 15.0076 25.8714 14.9238C25.6474 14.8121 25.3954 14.7562 25.0874 14.7562C24.4715 14.7562 23.9675 14.9238 23.5755 15.2868C23.1835 15.6499 22.9035 16.1526 22.7636 16.767C22.7076 17.0462 22.6796 17.3255 22.7076 17.5769V17.6606H20.3837L21.2796 13.667C22.5956 13.3319 23.3795 13.6112 23.3795 14.84C24.3315 14.4211 25.2274 14.3094 26.0114 14.7283C24.7794 12.913 22.9035 12.7175 20.8877 13.5274H20.2717L20.2157 13.8625C19.7397 14.1139 19.2637 14.3932 18.7598 14.7283C19.2637 14.4769 19.7117 14.2814 20.1597 14.086L19.1237 18.6381H22.5116L22.7076 17.7723C22.7356 17.9399 22.7916 18.0795 22.8755 18.2192C22.9875 18.4147 23.1555 18.5543 23.3795 18.6381C23.6035 18.7498 23.8555 18.8056 24.1915 18.8056C24.4995 18.8056 24.7515 18.7498 25.0314 18.666C25.2834 18.5822 25.5074 18.4426 25.7034 18.275C25.8994 18.1075 26.0674 17.8841 26.2074 17.6327C26.3474 17.3814 26.4594 17.1021 26.5154 16.7949C26.5714 16.5156 26.5994 16.2363 26.5714 15.985V15.985ZM25.4234 16.767C25.2554 17.5489 24.8914 17.9399 24.3035 17.9399C24.1635 17.9399 24.0235 17.912 23.9395 17.8561C23.8555 17.8003 23.7995 17.7165 23.7435 17.6048C23.7155 17.4931 23.6875 17.3814 23.6875 17.2417C23.6875 17.1021 23.7155 16.9625 23.7435 16.7949L23.6875 16.767C23.7715 16.3481 23.9115 16.0688 24.1075 15.8733C24.3035 15.6778 24.5275 15.594 24.8074 15.594C24.9754 15.594 25.1154 15.622 25.1994 15.6778C25.3114 15.7337 25.3674 15.8174 25.4234 15.9292C25.4514 16.0129 25.4794 16.1526 25.4794 16.2922C25.4794 16.4318 25.4514 16.5994 25.4234 16.767Z" fill="#00CCFF"/>
<path d="M19.4602 15.7334C19.3202 15.6775 19.1802 15.6496 19.0402 15.6496C18.8442 15.6496 18.6482 15.7055 18.4803 15.8172C18.3123 15.9289 18.2003 16.0406 18.1163 16.2082L17.5843 18.6378H16.6044L17.4723 14.8118H18.2563V15.3145H18.3403C18.4803 15.119 18.6482 14.9514 18.8162 14.8397C18.9842 14.728 19.1802 14.6722 19.4042 14.6722C19.5442 14.6722 19.6842 14.7001 19.8242 14.7559L19.4602 15.7334V15.7334ZM3.41704 17.2415C3.44504 17.1018 3.41704 16.9622 3.30505 16.8784C3.19305 16.7946 3.08106 16.7108 2.91307 16.6271C2.74508 16.5433 2.57709 16.4874 2.3811 16.4036C2.18511 16.3199 2.01711 16.2361 1.84912 16.1244C1.68113 16.0127 1.56914 15.8451 1.48514 15.6496C1.40115 15.4541 1.40115 15.2307 1.45714 14.9235C1.51314 14.6722 1.59714 14.4487 1.73713 14.2533C1.87712 14.0578 2.01711 13.8902 2.2131 13.7785C2.40909 13.6668 2.60508 13.5551 2.85707 13.4992C3.10906 13.4434 3.36104 13.4154 3.61303 13.4154C3.92102 13.4154 4.201 13.4434 4.48099 13.4992C4.76097 13.5551 4.95696 13.6389 5.12495 13.7506L4.59298 14.6442C4.53698 14.6163 4.48099 14.5884 4.39699 14.5325C4.313 14.5046 4.229 14.4767 4.11701 14.4487C4.00501 14.4208 3.89302 14.3929 3.78102 14.3929C3.66903 14.365 3.52904 14.365 3.38904 14.365C3.16505 14.365 2.96907 14.4208 2.80107 14.5046C2.66108 14.5884 2.54909 14.7001 2.52109 14.8677C2.49309 15.0073 2.52109 15.1469 2.63308 15.2307C2.74508 15.3145 2.85707 15.3983 3.02506 15.4821C3.19305 15.5658 3.36104 15.6217 3.55703 15.7055C3.75302 15.7893 3.92102 15.873 4.08901 15.9847C4.257 16.0964 4.36899 16.264 4.45299 16.4316C4.53698 16.5991 4.53698 16.8505 4.48099 17.1298C4.42499 17.409 4.313 17.6604 4.173 17.8559C4.03301 18.0513 3.86502 18.2189 3.66903 18.3585C3.47304 18.4982 3.24905 18.582 2.99706 18.6657C2.74508 18.7216 2.46509 18.7495 2.18511 18.7495C1.98912 18.7495 1.82112 18.7495 1.65313 18.7216C1.48514 18.6937 1.37315 18.6657 1.23316 18.6378C1.09316 18.6099 0.981169 18.582 0.869174 18.5261C0.75718 18.4982 0.673185 18.4423 0.617188 18.4144L1.17716 17.4928C1.23316 17.5207 1.28915 17.5487 1.37315 17.5766C1.45714 17.6045 1.54114 17.6324 1.65313 17.6883L1.98912 17.7721C2.10111 17.8 2.2411 17.8 2.3811 17.8C2.68908 17.8 2.94107 17.7442 3.10906 17.6604C3.30505 17.5766 3.38904 17.437 3.41704 17.2415V17.2415ZM6.41289 14.8118L5.93691 16.9343C5.85291 17.2415 5.85291 17.4928 5.90891 17.6324C5.96491 17.7721 6.1049 17.8559 6.35689 17.8559C6.55288 17.8559 6.74887 17.8 6.91686 17.6883C7.08485 17.5766 7.22484 17.437 7.30884 17.2694L7.86881 14.8118H8.84876L8.26079 17.4928C8.20479 17.6883 8.17679 17.9117 8.1488 18.1072C8.1208 18.3027 8.1208 18.4982 8.1208 18.6657H7.39284L7.33684 18.0793H7.25284C7.08485 18.2748 6.86086 18.4423 6.60888 18.582C6.35689 18.7216 6.0769 18.7775 5.79692 18.7775C5.60093 18.7775 5.43294 18.7495 5.26495 18.6937C5.12495 18.6378 5.01296 18.554 4.92896 18.4144C4.84497 18.3027 4.81697 18.1351 4.78897 17.9117C4.78897 17.7162 4.81697 17.4649 4.87297 17.1577L5.40494 14.8118H6.41289V14.8118ZM12.4326 15.1749C12.2646 14.8677 11.9286 14.7001 11.4246 14.7001C11.1726 14.7001 10.9486 14.7559 10.7247 14.8397C10.5007 14.9514 10.3047 15.0911 10.1087 15.2866H10.0247V14.8118H9.32473L9.29674 14.7559L8.1208 20.0621H9.10075L9.43673 18.554C9.54872 18.6099 9.66072 18.6657 9.77271 18.6937C9.88471 18.7216 10.0247 18.7495 10.1927 18.7495C10.4727 18.7495 10.7527 18.7216 11.0046 18.6099C11.2566 18.5261 11.4806 18.3865 11.6766 18.191C11.8726 17.9955 12.0406 17.7721 12.1806 17.5207C12.3206 17.2694 12.4046 16.9901 12.4886 16.655C12.6286 15.9847 12.6006 15.4821 12.4326 15.1749V15.1749ZM11.4806 16.6271C11.3966 17.0739 11.2286 17.409 11.0326 17.6045C10.8367 17.8 10.5567 17.9117 10.2487 17.9117C10.1087 17.9117 9.9687 17.8838 9.8847 17.8559C9.80071 17.8 9.71671 17.7442 9.66072 17.6883L9.9967 16.2082C10.1087 16.0127 10.2487 15.8451 10.3887 15.7334C10.5287 15.6217 10.7247 15.5658 10.9487 15.5658C11.2286 15.5658 11.3966 15.6496 11.4806 15.8451C11.5646 16.0406 11.5646 16.2919 11.4806 16.6271V16.6271ZM16.7163 15.5658C16.6604 15.3703 16.5764 15.2028 16.4644 15.0911C16.3524 14.9794 16.1844 14.8956 16.0164 14.8397C15.8484 14.7839 15.6524 14.7559 15.4564 14.7559C14.8404 14.7559 14.3365 14.9235 13.9165 15.2586C13.4965 15.5938 13.2165 16.0964 13.0765 16.7667C12.9365 17.3811 12.9645 17.8838 13.1885 18.2468C13.4125 18.6099 13.8325 18.7775 14.4765 18.7775C14.8124 18.7775 15.0924 18.7216 15.4004 18.6378C15.7084 18.5261 15.9324 18.4423 16.1004 18.3027L15.9324 17.7162C15.8204 17.7721 15.6804 17.8559 15.4844 17.9117C15.2884 17.9955 15.0924 18.0234 14.8684 18.0234C14.4765 18.0234 14.2525 17.9396 14.1125 17.7721C14.0005 17.6324 13.9445 17.3811 14.0005 17.046H16.4644C16.5204 16.9063 16.5764 16.7667 16.6044 16.655L16.6884 16.3199C16.7443 16.0127 16.7723 15.7613 16.7163 15.5658V15.5658ZM15.7644 16.3757H14.1685C14.2525 16.1244 14.3925 15.9289 14.5605 15.7613C14.7285 15.5938 14.9804 15.51 15.2604 15.51C15.5124 15.51 15.6804 15.5658 15.7644 15.7334C15.8484 15.901 15.8484 16.0964 15.7644 16.3757V16.3757ZM16.1284 18.3027V18.3585V18.3027ZM34.8594 20.7603C34.8874 20.6765 34.8594 20.6206 34.8034 20.5927C34.7474 20.5648 34.6914 20.5089 34.6354 20.481C34.5794 20.4531 34.4954 20.4252 34.4114 20.3693C34.3274 20.3414 34.2434 20.2855 34.1874 20.2297C34.1314 20.1738 34.0754 20.09 34.0474 20.0063C34.0194 19.9225 34.0194 19.8108 34.0474 19.6711C34.0754 19.5594 34.1034 19.4477 34.1594 19.3639C34.2154 19.2801 34.2714 19.1964 34.3554 19.1405C34.4394 19.0847 34.5234 19.0288 34.6354 19.0009C34.7474 18.9729 34.8314 18.945 34.9434 18.945C35.0834 18.945 35.1954 18.945 35.3074 18.9729C35.4194 19.0009 35.5034 19.0288 35.5874 19.0847L35.3634 19.5036C35.3354 19.4756 35.3074 19.4756 35.2794 19.4477C35.2514 19.4198 35.1954 19.4198 35.1674 19.3919C35.1114 19.3919 35.0834 19.3639 35.0274 19.3639H34.8594C34.7474 19.3639 34.6914 19.3919 34.6074 19.4198C34.5514 19.4477 34.4954 19.5036 34.4954 19.5873C34.4674 19.6711 34.4954 19.727 34.5514 19.7549C34.6074 19.8108 34.6634 19.8387 34.7194 19.8666C34.7754 19.8945 34.8594 19.9504 34.9434 19.9783C35.0274 20.0062 35.1114 20.0621 35.1674 20.118C35.2234 20.1738 35.2794 20.2576 35.3074 20.3414C35.3354 20.4252 35.3354 20.5369 35.3074 20.6765C35.2794 20.8161 35.2514 20.9278 35.1674 21.0116C35.1114 21.0954 35.0274 21.1792 34.9434 21.263C34.8594 21.3188 34.7754 21.3747 34.6634 21.4026C34.5514 21.4305 34.4394 21.4585 34.3274 21.4585C34.2434 21.4585 34.1594 21.4585 34.1034 21.4305C34.0194 21.4305 33.9635 21.4026 33.9075 21.4026C33.8515 21.3747 33.7955 21.3747 33.7675 21.3468C33.7115 21.3188 33.6835 21.3188 33.6555 21.2909L33.8795 20.8441C33.9075 20.8441 33.9355 20.872 33.9635 20.8999C33.9915 20.9278 34.0474 20.9278 34.0754 20.9558C34.1314 20.9837 34.1594 20.9837 34.2154 20.9837H34.3834C34.5234 20.9837 34.6074 20.9558 34.6914 20.9278C34.7754 20.872 34.8034 20.8161 34.8594 20.7603V20.7603ZM33.5715 19.0288H33.9914L33.6835 20.5927C33.6555 20.7603 33.5995 20.8999 33.5435 21.0116C33.4875 21.1233 33.4035 21.235 33.3195 21.2909C33.2355 21.3747 33.1515 21.4305 33.0395 21.4585C32.9275 21.4864 32.8155 21.5143 32.7035 21.5143C32.4235 21.5143 32.2275 21.4305 32.1155 21.2909C32.0036 21.1513 31.9756 20.9278 32.0316 20.6486L32.3395 19.0288H32.7875L32.4795 20.5648C32.4515 20.7603 32.4515 20.872 32.5075 20.9558C32.5635 21.0396 32.6475 21.0675 32.7875 21.0675C32.9275 21.0675 33.0115 21.0396 33.0955 20.9558C33.1795 20.872 33.2355 20.7603 33.2635 20.5648L33.5715 19.0288V19.0288ZM31.7796 21.4305H30.3516L30.8276 19.0009H31.2756L30.8836 20.9837H31.8916L31.7796 21.4305V21.4305ZM30.5476 19.3639C30.5196 19.2522 30.4636 19.1684 30.3796 19.1126C30.2956 19.0567 30.2116 19.0288 30.0997 19.0009C29.9877 18.9729 29.8757 18.9729 29.7637 18.9729C29.6517 18.9729 29.5397 19.0009 29.4277 19.0009C29.3157 19.0288 29.2037 19.0288 29.1197 19.0567L28.6157 21.4305H29.0637L29.2317 20.6206H29.5117C29.6237 20.6206 29.7357 20.5927 29.8477 20.5648C29.9597 20.5369 30.0717 20.481 30.1557 20.4252C30.2396 20.3693 30.3236 20.2855 30.4076 20.1738C30.4636 20.0621 30.5196 19.9225 30.5476 19.7828C30.5756 19.6153 30.5756 19.4756 30.5476 19.3639V19.3639ZM30.0997 19.7828C30.0717 19.8945 30.0437 19.9504 30.0157 20.0063C29.9597 20.0342 29.9317 20.09 29.8757 20.118C29.8197 20.1459 29.7637 20.1738 29.7077 20.1738H29.5397H29.3717L29.5117 19.4477H29.8757C29.9317 19.4477 29.9877 19.4756 30.0157 19.5036C30.0437 19.5315 30.0717 19.5594 30.0997 19.6153C30.0997 19.6432 30.1277 19.6991 30.0997 19.7828V19.7828ZM25.0879 6.90842L25.7879 10.3714L17.6683 11.7398L15.7924 3.47338L19.2922 2.83105L20.4122 7.69038L25.0879 6.90842Z" fill="#00CCFF"/>
<path d="M25.7885 10.3716L25.5085 11.1257L17.137 12.55L15.2051 4.00425L15.793 3.47363L17.6689 11.7401L25.7885 10.3716Z" fill="#086880"/>
</svg>
